<svg width="1653" height="991" xmlns="http://www.w3.org/2000/svg" xmlns:xlink="http://www.w3.org/1999/xlink" overflow="hidden"><defs><clipPath id="clip0"><rect x="1029" y="170" width="1653" height="991"/></clipPath><clipPath id="clip1"><rect x="1029" y="170" width="1650" height="989"/></clipPath><clipPath id="clip2"><rect x="1029" y="170" width="1650" height="989"/></clipPath><clipPath id="clip3"><rect x="1029" y="170" width="1650" height="989"/></clipPath><clipPath id="clip4"><rect x="1139" y="220" width="1493" height="787"/></clipPath><clipPath id="clip5"><rect x="1139" y="220" width="1493" height="787"/></clipPath><clipPath id="clip6"><rect x="1029" y="170" width="1650" height="989"/></clipPath><clipPath id="clip7"><rect x="1029" y="170" width="1650" height="989"/></clipPath><clipPath id="clip8"><rect x="1029" y="170" width="1650" height="989"/></clipPath><clipPath id="clip9"><rect x="1029" y="170" width="1650" height="989"/></clipPath><clipPath id="clip10"><rect x="1029" y="170" width="1650" height="989"/></clipPath><clipPath id="clip11"><rect x="1029" y="170" width="1650" height="989"/></clipPath><clipPath id="clip12"><rect x="1029" y="170" width="1650" height="989"/></clipPath><clipPath id="clip13"><rect x="1029" y="170" width="1650" height="989"/></clipPath><clipPath id="clip14"><rect x="1029" y="170" width="1650" height="989"/></clipPath><clipPath id="clip15"><rect x="1029" y="170" width="1650" height="989"/></clipPath><clipPath id="clip16"><rect x="1029" y="170" width="1650" height="989"/></clipPath><clipPath id="clip17"><rect x="1029" y="170" width="1650" height="989"/></clipPath><clipPath id="clip18"><rect x="1029" y="170" width="1650" height="989"/></clipPath><clipPath id="clip19"><rect x="1029" y="170" width="1650" height="989"/></clipPath><clipPath id="clip20"><rect x="1029" y="170" width="1650" height="989"/></clipPath><clipPath id="clip21"><rect x="1029" y="170" width="1650" height="989"/></clipPath><clipPath id="clip22"><rect x="1029" y="170" width="1650" height="989"/></clipPath><clipPath id="clip23"><rect x="1029" y="170" width="1650" height="989"/></clipPath><clipPath id="clip24"><rect x="1029" y="170" width="1650" height="989"/></clipPath><clipPath id="clip25"><rect x="1029" y="170" width="1650" height="989"/></clipPath><clipPath id="clip26"><rect x="1029" y="170" width="1650" height="989"/></clipPath><clipPath id="clip27"><rect x="1029" y="170" width="1650" height="989"/></clipPath><clipPath id="clip28"><rect x="1029" y="170" width="1650" height="989"/></clipPath></defs><g clip-path="url(#clip0)" transform="translate(-1029 -170)"><rect x="1030" y="171" width="1650" height="988" fill="#FFFFFF"/><g clip-path="url(#clip1)"><path d="M1139.5 1003.5 2629.5 1003.5M1139.5 932.531 2629.5 932.531M1139.5 790.526 2629.5 790.526M1139.5 719.524 2629.5 719.524M1139.5 647.521 2629.5 647.521M1139.5 576.519 2629.5 576.519M1139.5 505.517 2629.5 505.517M1139.5 434.514 2629.5 434.514M1139.5 363.512 2629.5 363.512M1139.5 292.51 2629.5 292.51M1139.5 220.5 2629.5 220.5" stroke="#D9D9D9" stroke-width="3.4375" stroke-linejoin="round" stroke-miterlimit="10" fill="none"/></g><g clip-path="url(#clip2)"><path d="M1139.5 861.5 2629.5 861.5" stroke="#D9D9D9" stroke-width="3.4375" stroke-linejoin="round" stroke-miterlimit="10" fill="none" fill-rule="evenodd"/></g><g clip-path="url(#clip3)"><path d="M1139.5 861.5 1139.5 874.5M1352.54 861.5 1352.54 874.5M1565.55 861.5 1565.55 874.5M1778.56 861.5 1778.56 874.5M1990.57 861.5 1990.57 874.5M2203.57 861.5 2203.57 874.5M2416.58 861.5 2416.58 874.5M2629.5 861.5 2629.5 874.5" stroke="#D9D9D9" stroke-width="3.4375" stroke-linejoin="round" stroke-miterlimit="10" fill="none"/></g><g clip-path="url(#clip4)"><path d="M1246 669 1459.05 712.023 1672.05 723.024 1885.06 687.023 2097.07 879.029 2310.08 904 2523 847.028" stroke="#4472C4" stroke-width="10.3125" stroke-linecap="round" stroke-linejoin="round" stroke-miterlimit="10" fill="none"/></g><g clip-path="url(#clip5)"><path d="M1246 548.018 1459.05 587.019 1672.05 274 1885.06 577.019 2097.07 822 2310.08 580.019 2523 698.023" stroke="#ED7D31" stroke-width="10.3125" stroke-linecap="round" stroke-linejoin="round" stroke-miterlimit="10" fill="none"/></g><g clip-path="url(#clip6)"><text fill="#595959" font-family="Calibri,Calibri_MSFontService,sans-serif" font-weight="400" font-size="41" transform="matrix(1 0 0 1 1067.94 1015)">-4</text></g><g clip-path="url(#clip7)"><text fill="#595959" font-family="Calibri,Calibri_MSFontService,sans-serif" font-weight="400" font-size="41" transform="matrix(1 0 0 1 1067.94 944)">-2</text></g><g clip-path="url(#clip8)"><text fill="#595959" font-family="Calibri,Calibri_MSFontService,sans-serif" font-weight="400" font-size="41" transform="matrix(1 0 0 1 1080.57 873)">0</text></g><g clip-path="url(#clip9)"><text fill="#595959" font-family="Calibri,Calibri_MSFontService,sans-serif" font-weight="400" font-size="41" transform="matrix(1 0 0 1 1080.57 802)">2</text></g><g clip-path="url(#clip10)"><text fill="#595959" font-family="Calibri,Calibri_MSFontService,sans-serif" font-weight="400" font-size="41" transform="matrix(1 0 0 1 1080.57 731)">4</text></g><g clip-path="url(#clip11)"><text fill="#595959" font-family="Calibri,Calibri_MSFontService,sans-serif" font-weight="400" font-size="41" transform="matrix(1 0 0 1 1080.57 660)">6</text></g><g clip-path="url(#clip12)"><text fill="#595959" font-family="Calibri,Calibri_MSFontService,sans-serif" font-weight="400" font-size="41" transform="matrix(1 0 0 1 1080.57 588)">8</text></g><g clip-path="url(#clip13)"><text fill="#595959" font-family="Calibri,Calibri_MSFontService,sans-serif" font-weight="400" font-size="41" transform="matrix(1 0 0 1 1059.67 517)">10</text></g><g clip-path="url(#clip14)"><text fill="#595959" font-family="Calibri,Calibri_MSFontService,sans-serif" font-weight="400" font-size="41" transform="matrix(1 0 0 1 1059.67 446)">12</text></g><g clip-path="url(#clip15)"><text fill="#595959" font-family="Calibri,Calibri_MSFontService,sans-serif" font-weight="400" font-size="41" transform="matrix(1 0 0 1 1059.67 375)">14</text></g><g clip-path="url(#clip16)"><text fill="#595959" font-family="Calibri,Calibri_MSFontService,sans-serif" font-weight="400" font-size="41" transform="matrix(1 0 0 1 1059.67 304)">16</text></g><g clip-path="url(#clip17)"><text fill="#595959" font-family="Calibri,Calibri_MSFontService,sans-serif" font-weight="400" font-size="41" transform="matrix(1 0 0 1 1059.67 232)">18</text></g><g clip-path="url(#clip18)"><text fill="#595959" font-family="Calibri,Calibri_MSFontService,sans-serif" font-weight="400" font-size="41" transform="matrix(1 0 0 1 1235.69 927)">5</text></g><g clip-path="url(#clip19)"><text fill="#595959" font-family="Calibri,Calibri_MSFontService,sans-serif" font-weight="400" font-size="41" transform="matrix(1 0 0 1 1448.51 927)">6</text></g><g clip-path="url(#clip20)"><text fill="#595959" font-family="Calibri,Calibri_MSFontService,sans-serif" font-weight="400" font-size="41" transform="matrix(1 0 0 1 1661.33 927)">7</text></g><g clip-path="url(#clip21)"><text fill="#595959" font-family="Calibri,Calibri_MSFontService,sans-serif" font-weight="400" font-size="41" transform="matrix(1 0 0 1 1874.15 927)">8</text></g><g clip-path="url(#clip22)"><text fill="#595959" font-family="Calibri,Calibri_MSFontService,sans-serif" font-weight="400" font-size="41" transform="matrix(1 0 0 1 2086.96 927)">9</text></g><g clip-path="url(#clip23)"><text fill="#595959" font-family="Calibri,Calibri_MSFontService,sans-serif" font-weight="400" font-size="41" transform="matrix(1 0 0 1 2289.33 927)">10</text></g><g clip-path="url(#clip24)"><text fill="#595959" font-family="Calibri,Calibri_MSFontService,sans-serif" font-weight="400" font-size="41" transform="matrix(1 0 0 1 2502.15 927)">11</text></g><g clip-path="url(#clip25)"><path d="M1664 1093 1752 1093" stroke="#4472C4" stroke-width="10.3125" stroke-linecap="round" stroke-linejoin="round" stroke-miterlimit="10" fill="none" fill-rule="evenodd"/></g><g clip-path="url(#clip26)"><text fill="#595959" font-family="Yu Gothic,Yu Gothic_MSFontService,sans-serif" font-weight="400" font-size="41" transform="matrix(1 0 0 1 1761.26 1105)">最低</text></g><g clip-path="url(#clip27)"><path d="M1882 1093 1970 1093" stroke="#ED7D31" stroke-width="10.3125" stroke-linecap="round" stroke-linejoin="round" stroke-miterlimit="10" fill="none" fill-rule="evenodd"/></g><g clip-path="url(#clip28)"><text fill="#595959" font-family="Yu Gothic,Yu Gothic_MSFontService,sans-serif" font-weight="400" font-size="41" transform="matrix(1 0 0 1 1979.43 1105)">最高</text></g><rect x="1030.5" y="171.5" width="1650" height="988" stroke="#D9D9D9" stroke-width="3.4375" stroke-linejoin="round" stroke-miterlimit="10" fill="none"/></g></svg>